inDegrees=yes
name=IMU_IK_results.mot
DataType=double
version=3
OpenSimVersion=4.4-2022-08-12-dcf8e2cb1
endheader
time	TH_y	TH_x	TH_z	TH_x_trans	TH_y_trans	TH_z_trans	SC_y	SC_z	SC_x	AC_y	AC_z	AC_x	GH_y	GH_z	GH_x	EL_x	PS_y
0	-169.612688832448	-3.844016673971186	-2.255393251316396	0	0	0	-21.7838553708739	6.302535746439055	0	46.29498984657052	4.898789148368539	-1.180293057969496	14.0764588535124	-2.183266632623262	8.096397448259882	12.32915237910271	106.6029442461326
0.01	-169.5835757707563	-3.857783006436851	-2.260840261744558	0	0	0	-21.7838553708739	6.302535746439055	0	46.29498984657052	4.898789148368539	-1.180293057969496	14.06084345843679	-2.18423335253475	8.099136597625375	12.32615220692845	106.6094170012113
0.02	-169.5602823639279	-3.87182726184193	-2.271702380860773	0	0	0	-21.7838553708739	6.302535746439055	0	46.29498984657052	4.898789148368539	-1.180293057969496	14.04620828301897	-2.183690631012184	8.1028269926821	12.32661166443807	106.6231452723918
0.03	-169.5325047985199	-3.887187453098105	-2.276185034843827	0	0	0	-21.7838553708739	6.302535746439055	0	46.29498984657052	4.898789148368539	-1.180293057969496	14.03234973691581	-2.178205946162846	8.101292042297981	12.3237041054177	106.6332978231831
0.04	-169.5047787477323	-3.902540949061302	-2.283864285414873	0	0	0	-21.7838553708739	6.302535746439055	0	46.29498984657052	4.898789148368539	-1.180293057969496	14.01833825123646	-2.174653104934321	8.100823429927138	12.32048501820442	106.6393129234821
0.05	-169.4786646475224	-3.91729884268123	-2.29110712598135	0	0	0	-21.7838553708739	6.302535746439055	0	46.29498984657052	4.898789148368539	-1.180293057969496	14.00739773502258	-2.170928829446048	8.100197236942932	12.31613016424188	106.6429190942648
0.06	-169.4494965919581	-3.930794988348434	-2.300449798821119	0	0	0	-21.7838553708739	6.302535746439055	0	46.29498984657052	4.898789148368539	-1.180293057969496	14.00124465701035	-2.16744819322504	8.100988513182182	12.31106417504877	106.6327872884383
0.07000000000000001	-169.4324653427543	-3.945402537984521	-2.309134345043522	0	0	0	-21.7838553708739	6.302535746439055	0	46.29498984657052	4.898789148368539	-1.180293057969496	13.99373155044694	-2.16367402988431	8.103169154748896	12.30761155956539	106.6461384812726
0.08	-169.4084010902871	-3.962326913274643	-2.316037301691712	0	0	0	-21.7838553708739	6.302535746439055	0	46.29498984657052	4.898789148368539	-1.180293057969496	13.98612704729588	-2.15720915262424	8.104370724393819	12.30021883340312	106.6550957554035
0.09	-169.3859839703612	-3.977930450378495	-2.322386246375691	0	0	0	-21.7838553708739	6.302535746439055	0	46.29498984657052	4.898789148368539	-1.180293057969496	13.98603439323635	-2.150509724689378	8.106095207339857	12.29219883005699	106.6498869410541
0.09999999999999999	-169.3659795097729	-3.993197217533307	-2.328313547796943	0	0	0	-21.7838553708739	6.302535746439055	0	46.29498984657052	4.898789148368539	-1.180293057969496	13.98979332807511	-2.142697337065753	8.108557845378447	12.28426147764514	106.6433925072047
0.11	-169.3474224829886	-4.00842652900755	-2.332932256622872	0	0	0	-21.7838553708739	6.302535746439055	0	46.29498984657052	4.898789148368539	-1.180293057969496	13.99713572461208	-2.133720592977267	8.111001084487725	12.2756631010093	106.6333003290486
0.12	-169.3300504842481	-4.024079551610444	-2.336915324721016	0	0	0	-21.7838553708739	6.302535746439055	0	46.29498984657052	4.898789148368539	-1.180293057969496	14.00726052883386	-2.124338960980193	8.113948078085915	12.26655241980946	106.620221502616
0.13	-169.3084276699027	-4.038224546521357	-2.342297009494895	0	0	0	-21.7838553708739	6.302535746439055	0	46.29498984657052	4.898789148368539	-1.180293057969496	14.02182423053032	-2.116141619746108	8.117431045797336	12.25711996253545	106.5890541578373
0.14	-169.3005229603784	-4.05564614987028	-2.347854365999878	0	0	0	-21.7838553708739	6.302535746439055	0	46.29498984657052	4.898789148368539	-1.180293057969496	14.03399034426891	-2.107309701550516	8.124439176753109	12.2511569862524	106.5965688180401
0.15	-169.2830582458295	-4.070983923869034	-2.347630907288372	0	0	0	-21.7838553708739	6.302535746439055	0	46.29498984657052	4.898789148368539	-1.180293057969496	14.05130587822209	-2.094585430471612	8.128632886208983	12.24162508534609	106.5764376325956
0.16	-169.2625653173215	-4.084803106840953	-2.3490385755932	0	0	0	-21.7838553708739	6.302535746439055	0	46.29498984657052	4.898789148368539	-1.180293057969496	14.06939171369528	-2.085876117767127	8.132356923079728	12.23304855971274	106.5423934556661
0.17	-169.254183521443	-4.10180711534062	-2.35128729368757	0	0	0	-21.7838553708739	6.302535746439055	0	46.29498984657052	4.898789148368539	-1.180293057969496	14.08425686935701	-2.078188142316768	8.139739256874288	12.22869864464179	106.5468177225213
0.18	-169.23678667547	-4.118339132042136	-2.350835938312886	0	0	0	-21.7838553708739	6.302535746439055	0	46.29498984657052	4.898789148368539	-1.180293057969496	14.102326868192	-2.069340722981452	8.145566614020545	12.22198512094404	106.5300156921449
0.19	-169.2140703334735	-4.124170653557307	-2.342936962190137	0	0	0	-21.7838553708739	6.302535746439055	0	46.29498984657052	4.898789148368539	-1.180293057969496	14.11593064191971	-2.05737754885663	8.148409962361738	12.21685177044646	106.4990779404532
0.2	-169.2028496454373	-4.14076417105136	-2.341490194205483	0	0	0	-21.7838553708739	6.302535746439055	0	46.29498984657052	4.898789148368539	-1.180293057969496	14.12903825455292	-2.053736247265316	8.154128765283936	12.21425160683368	106.502924181443
0.21	-169.1802443371524	-4.154269977141976	-2.337415825316886	0	0	0	-21.7838553708739	6.302535746439055	0	46.29498984657052	4.898789148368539	-1.180293057969496	14.14040858554403	-2.049548301598038	8.159729613161156	12.21104645090854	106.4910841890634
0.2200000000000001	-169.1565005954489	-4.164294011800199	-2.330759882534795	0	0	0	-21.7838553708739	6.302535746439055	0	46.29498984657052	4.898789148368539	-1.180293057969496	14.14974715959314	-2.045512166614448	8.163819211699613	12.20897034487665	106.4756764880067
0.2300000000000001	-169.1341824333933	-4.174260298709838	-2.323741778295434	0	0	0	-21.7838553708739	6.302535746439055	0	46.29498984657052	4.898789148368539	-1.180293057969496	14.15629108449032	-2.04397312974695	8.167805251535881	12.20819878383328	106.4700611279489
0.2400000000000001	-169.1093840523798	-4.183839524495247	-2.314733514656333	0	0	0	-21.7838553708739	6.302535746439055	0	46.29498984657052	4.898789148368539	-1.180293057969496	14.1607584909059	-2.043601753340969	8.171826994865111	12.20800045350191	106.4645277198008
0.2500000000000001	-169.0832772957665	-4.193114790095584	-2.306225983169064	0	0	0	-21.7838553708739	6.302535746439055	0	46.29498984657052	4.898789148368539	-1.180293057969496	14.16391655956213	-2.045425598780004	8.175352759992936	12.20838736845024	106.4610129812069
0.2600000000000001	-169.0545927174201	-4.196628017957854	-2.293479384557804	0	0	0	-21.7838553708739	6.302535746439055	0	46.29498984657052	4.898789148368539	-1.180293057969496	14.16696693958644	-2.042784847328287	8.178111698856609	12.20912209975148	106.4490425594908
0.2700000000000001	-169.0252598000441	-4.208108079974786	-2.284711111991373	0	0	0	-21.7838553708739	6.302535746439055	0	46.29498984657052	4.898789148368539	-1.180293057969496	14.16977206062058	-2.048923565082446	8.180622211356523	12.2096317477518	106.4447304668548
0.2800000000000001	-169.0018572153032	-4.216475827693426	-2.273838935663389	0	0	0	-21.7838553708739	6.302535746439055	0	46.29498984657052	4.898789148368539	-1.180293057969496	14.16586671239988	-2.055482321561725	8.185235804861163	12.21334399859257	106.4568026940166
0.2900000000000001	-168.9688795576602	-4.219352670726706	-2.259277051003301	0	0	0	-21.7838553708739	6.302535746439055	0	46.29498984657052	4.898789148368539	-1.180293057969496	14.16846171591949	-2.054797857318349	8.1870729985365	12.21422941639926	106.4435470596067
0.3000000000000001	-168.9452945713644	-4.227887847338262	-2.246734630419663	0	0	0	-21.7838553708739	6.302535746439055	0	46.29498984657052	4.898789148368539	-1.180293057969496	14.16618957798012	-2.061502580598643	8.191324690573538	12.21826734415396	106.4560870392662
0.3100000000000001	-168.9135787063964	-4.235721258342307	-2.234234851146363	0	0	0	-21.7838553708739	6.302535746439055	0	46.29498984657052	4.898789148368539	-1.180293057969496	14.16781994303725	-2.067764156390278	8.193661484398936	12.21961561168321	106.4517815462958
0.3200000000000001	-168.8848462131526	-4.237948381416264	-2.220049699305713	0	0	0	-21.7838553708739	6.302535746439055	0	46.29498984657052	4.898789148368539	-1.180293057969496	14.1713896799872	-2.067680131283711	8.195701456282119	12.22091967203143	106.4384529096707
0.3300000000000001	-168.8581619804331	-4.247357719221152	-2.209770897175582	0	0	0	-21.7838553708739	6.302535746439055	0	46.29498984657052	4.898789148368539	-1.180293057969496	14.17699082080665	-2.074518100235213	8.198237482414015	12.22270344140661	106.4344454121382
0.3400000000000001	-168.8394804052414	-4.254278304100664	-2.198825858711372	0	0	0	-21.7838553708739	6.302535746439055	0	46.29498984657052	4.898789148368539	-1.180293057969496	14.17752918374739	-2.080786917623989	8.203551317084496	12.22734176005118	106.4456569936323
